{
  "accessors": [
    {
      "bufferView": 2,
      "componentType": 5126,
      "count": 43842,
      "max": [
        0.4865005612373352,
        1.0004894733428955,
        0.49701541662216187
      ],
      "min": [
        -0.47582316398620605,
        -0.5,
        -0.46223220229148865
      ],
      "type": "VEC3"
    },
    {
      "bufferView": 2,
      "byteOffset": 526104,
      "componentType": 5126,
      "count": 43842,
      "max": [
        0.999973714351654,
        0.9999991655349731,
        1.0
      ],
      "min": [
        -0.9999701380729675,
        -1.0,
        -0.9999995827674866
      ],
      "type": "VEC3"
    },
    {
      "bufferView": 3,
      "componentType": 5126,
      "count": 43842,
      "max": [
        0.9409384727478027,
        0.9318330883979797,
        0.9999960660934448,
        1.0
      ],
      "min": [
        -0.9968457221984863,
        -0.9994419813156128,
        -1.0,
        1.0
      ],
      "type": "VEC4"
    },
    {
      "bufferView": 1,
      "componentType": 5126,
      "count": 43842,
      "max": [
        0.9777746796607971,
        0.9803696870803833
      ],
      "min": [
        0.004599571228027344,
        0.011754264123737812
      ],
      "type": "VEC2"
    },
    {
      "bufferView": 0,
      "componentType": 5125,
      "count": 261120,
      "type": "SCALAR"
    }
  ],
  "asset": {
    "extras": {
      "author": "chelloveco (https://sketchfab.com/chelloveco)",
      "license": "CC-BY-4.0 (http://creativecommons.org/licenses/by/4.0/)",
      "source": "https://sketchfab.com/3d-models/runes-stone-5a650aec439c4c308343a6a6e50f7f46",
      "title": "Rune's Stone"
    },
    "generator": "Sketchfab-12.67.0",
    "version": "2.0"
  },
  "bufferViews": [
    {
      "buffer": 0,
      "byteLength": 1044480,
      "name": "floatBufferViews",
      "target": 34963
    },
    {
      "buffer": 0,
      "byteLength": 350736,
      "byteOffset": 1044480,
      "byteStride": 8,
      "name": "floatBufferViews",
      "target": 34962
    },
    {
      "buffer": 0,
      "byteLength": 1052208,
      "byteOffset": 1395216,
      "byteStride": 12,
      "name": "floatBufferViews",
      "target": 34962
    },
    {
      "buffer": 0,
      "byteLength": 701472,
      "byteOffset": 2447424,
      "byteStride": 16,
      "name": "floatBufferViews",
      "target": 34962
    }
  ],
  "buffers": [
    {
      "byteLength": 3148896,
      "uri": "scene.bin"
    }
  ],
  "images": [
    {
      "uri": "textures/lambert1_baseColor.png"
    },
    {
      "uri": "textures/lambert1_metallicRoughness.png"
    },
    {
      "uri": "textures/lambert1_normal.png"
    }
  ],
  "materials": [
    {
      "doubleSided": true,
      "name": "lambert1",
      "normalTexture": {
        "index": 2
      },
      "pbrMetallicRoughness": {
        "baseColorTexture": {
          "index": 0
        },
        "metallicRoughnessTexture": {
          "index": 1
        }
      }
    }
  ],
  "meshes": [
    {
      "name": "pCube1_lambert1_0",
      "primitives": [
        {
          "attributes": {
            "NORMAL": 1,
            "POSITION": 0,
            "TANGENT": 2,
            "TEXCOORD_0": 3
          },
          "indices": 4,
          "material": 0,
          "mode": 4
        }
      ]
    }
  ],
  "nodes": [
    {
      "children": [
        1
      ],
      "matrix": [
        -1.5158075094223022,
        2.43774680976746e-16,
        -6.415909825534206e-05,
        0.0,
        -6.415909825534206e-05,
        -9.281644477694923e-17,
        1.5158075094223022,
        0.0,
        2.4377074642942965e-16,
        1.5158075094223022,
        9.282675641125733e-17,
        0.0,
        0.010677756741642952,
        2.1737809527781545e-16,
        0.021016091108322144,
        1.0
      ],
      "name": "Sketchfab_model"
    },
    {
      "children": [
        2
      ],
      "matrix": [
        1.0,
        0.0,
        0.0,
        0.0,
        0.0,
        0.0,
        1.0,
        0.0,
        0.0,
        -1.0,
        0.0,
        0.0,
        0.0,
        0.0,
        0.0,
        1.0
      ],
      "name": "492e364fcb024a9e9161321b3fac9c75.fbx"
    },
    {
      "children": [
        3
      ],
      "name": "RootNode"
    },
    {
      "children": [
        4
      ],
      "matrix": [
        1.0,
        0.0,
        0.0,
        0.0,
        0.0,
        1.0,
        0.0,
        0.0,
        0.0,
        0.0,
        0.6041927933692932,
        0.0,
        0.0,
        1.0441662073135376,
        0.0,
        1.0
      ],
      "name": "pCube1"
    },
    {
      "mesh": 0,
      "name": "pCube1_lambert1_0"
    }
  ],
  "samplers": [
    {
      "magFilter": 9729,
      "minFilter": 9987,
      "wrapS": 10497,
      "wrapT": 10497
    }
  ],
  "scene": 0,
  "scenes": [
    {
      "name": "Sketchfab_Scene",
      "nodes": [
        0
      ]
    }
  ],
  "textures": [
    {
      "sampler": 0,
      "source": 0
    },
    {
      "sampler": 0,
      "source": 1
    },
    {
      "sampler": 0,
      "source": 2
    }
  ]
}
