{
  "accessors": [
    {
      "bufferView": 2,
      "componentType": 5126,
      "count": 65532,
      "max": [
        3.7791242599487305,
        -2.9426050186157227,
        1.6989233493804932
      ],
      "min": [
        -1.4568544626235962,
        -8.167032241821289,
        1.1605124473571777
      ],
      "type": "VEC3"
    },
    {
      "bufferView": 2,
      "byteOffset": 786384,
      "componentType": 5126,
      "count": 65532,
      "max": [
        0.9959908127784729,
        0.9927012324333191,
        0.6782751083374023
      ],
      "min": [
        -0.9956744313240051,
        -0.985481858253479,
        -0.9999999403953552
      ],
      "type": "VEC3"
    },
    {
      "bufferView": 1,
      "componentType": 5126,
      "count": 65532,
      "max": [
        0.9997273087501526,
        0.9372557401657104
      ],
      "min": [
        0.000244140625,
        0.00031282438430935144
      ],
      "type": "VEC2"
    },
    {
      "bufferView": 1,
      "byteOffset": 524256,
      "componentType": 5126,
      "count": 65532,
      "max": [
        0.9997273087501526,
        0.9372557401657104
      ],
      "min": [
        0.000244140625,
        0.00031282438430935144
      ],
      "type": "VEC2"
    },
    {
      "bufferView": 0,
      "componentType": 5125,
      "count": 320553,
      "type": "SCALAR"
    },
    {
      "bufferView": 2,
      "byteOffset": 1572768,
      "componentType": 5126,
      "count": 65532,
      "max": [
        3.760324001312256,
        -4.631927490234375,
        1.7368630170822144
      ],
      "min": [
        -0.103981614112854,
        -12.129402160644531,
        1.4252545833587646
      ],
      "type": "VEC3"
    },
    {
      "bufferView": 2,
      "byteOffset": 2359152,
      "componentType": 5126,
      "count": 65532,
      "max": [
        0.9996486902236938,
        0.9965583086013794,
        0.9999988079071045
      ],
      "min": [
        -0.9660992622375488,
        -0.9647641181945801,
        -0.9999995231628418
      ],
      "type": "VEC3"
    },
    {
      "bufferView": 1,
      "byteOffset": 1048512,
      "componentType": 5126,
      "count": 65532,
      "max": [
        0.9997299909591675,
        0.9714354276657104
      ],
      "min": [
        0.000244140625,
        0.00017418398056179285
      ],
      "type": "VEC2"
    },
    {
      "bufferView": 1,
      "byteOffset": 1572768,
      "componentType": 5126,
      "count": 65532,
      "max": [
        0.9997299909591675,
        0.9714354276657104
      ],
      "min": [
        0.000244140625,
        0.00017418398056179285
      ],
      "type": "VEC2"
    },
    {
      "bufferView": 0,
      "byteOffset": 1282212,
      "componentType": 5125,
      "count": 341400,
      "type": "SCALAR"
    },
    {
      "bufferView": 2,
      "byteOffset": 3145536,
      "componentType": 5126,
      "count": 65532,
      "max": [
        3.7830605506896973,
        -3.7547128200531006,
        1.7576971054077148
      ],
      "min": [
        -0.5944368839263916,
        -10.432235717773438,
        1.1967488527297974
      ],
      "type": "VEC3"
    },
    {
      "bufferView": 2,
      "byteOffset": 3931920,
      "componentType": 5126,
      "count": 65532,
      "max": [
        0.9999874830245972,
        0.952501654624939,
        0.9999808073043823
      ],
      "min": [
        -0.9922313690185547,
        -0.9798669219017029,
        -0.9999996423721313
      ],
      "type": "VEC3"
    },
    {
      "bufferView": 1,
      "byteOffset": 2097024,
      "componentType": 5126,
      "count": 65532,
      "max": [
        0.999441385269165,
        0.9802244901657104
      ],
      "min": [
        0.000244140625,
        0.00035734905395656824
      ],
      "type": "VEC2"
    },
    {
      "bufferView": 1,
      "byteOffset": 2621280,
      "componentType": 5126,
      "count": 65532,
      "max": [
        0.999441385269165,
        0.9802244901657104
      ],
      "min": [
        0.000244140625,
        0.00035734905395656824
      ],
      "type": "VEC2"
    },
    {
      "bufferView": 0,
      "byteOffset": 2647812,
      "componentType": 5125,
      "count": 315042,
      "type": "SCALAR"
    },
    {
      "bufferView": 2,
      "byteOffset": 4718304,
      "componentType": 5126,
      "count": 65532,
      "max": [
        2.3336234092712402,
        -2.669797897338867,
        1.742414116859436
      ],
      "min": [
        -1.9521387815475464,
        -11.452560424804688,
        1.0791404247283936
      ],
      "type": "VEC3"
    },
    {
      "bufferView": 2,
      "byteOffset": 5504688,
      "componentType": 5126,
      "count": 65532,
      "max": [
        0.997965931892395,
        0.9999961853027344,
        0.9999482035636902
      ],
      "min": [
        -0.9999788403511047,
        -0.9798669219017029,
        -0.9999996423721313
      ],
      "type": "VEC3"
    },
    {
      "bufferView": 1,
      "byteOffset": 3145536,
      "componentType": 5126,
      "count": 65532,
      "max": [
        0.9996971487998962,
        0.9792479276657104
      ],
      "min": [
        0.000244140625,
        0.0002805782714858651
      ],
      "type": "VEC2"
    },
    {
      "bufferView": 1,
      "byteOffset": 3669792,
      "componentType": 5126,
      "count": 65532,
      "max": [
        0.9996971487998962,
        0.9792479276657104
      ],
      "min": [
        0.000244140625,
        0.0002805782714858651
      ],
      "type": "VEC2"
    },
    {
      "bufferView": 0,
      "byteOffset": 3907980,
      "componentType": 5125,
      "count": 300138,
      "type": "SCALAR"
    },
    {
      "bufferView": 2,
      "byteOffset": 6291072,
      "componentType": 5126,
      "count": 65532,
      "max": [
        0.3159096837043762,
        -2.668926239013672,
        1.7390674352645874
      ],
      "min": [
        -2.0189318656921387,
        -12.085105895996094,
        1.0624414682388306
      ],
      "type": "VEC3"
    },
    {
      "bufferView": 2,
      "byteOffset": 7077456,
      "componentType": 5126,
      "count": 65532,
      "max": [
        0.9996220469474792,
        0.9999961853027344,
        0.9999482035636902
      ],
      "min": [
        -0.9999896883964539,
        -0.9982323050498962,
        -0.9999994039535522
      ],
      "type": "VEC3"
    },
    {
      "bufferView": 1,
      "byteOffset": 4194048,
      "componentType": 5126,
      "count": 65532,
      "max": [
        0.9997557997703552,
        0.9675291776657104
      ],
      "min": [
        0.000244140625,
        0.00015517009887844324
      ],
      "type": "VEC2"
    },
    {
      "bufferView": 1,
      "byteOffset": 4718304,
      "componentType": 5126,
      "count": 65532,
      "max": [
        0.9997557997703552,
        0.9675291776657104
      ],
      "min": [
        0.000244140625,
        0.00015517009887844324
      ],
      "type": "VEC2"
    },
    {
      "bufferView": 0,
      "byteOffset": 5108532,
      "componentType": 5125,
      "count": 282930,
      "type": "SCALAR"
    },
    {
      "bufferView": 2,
      "byteOffset": 7863840,
      "componentType": 5126,
      "count": 65532,
      "max": [
        3.128927230834961,
        -7.048454284667969,
        1.6716564893722534
      ],
      "min": [
        -2.0189318656921387,
        -13.228171348571777,
        1.0648558139801025
      ],
      "type": "VEC3"
    },
    {
      "bufferView": 2,
      "byteOffset": 8650224,
      "componentType": 5126,
      "count": 65532,
      "max": [
        0.9982683062553406,
        0.9999274611473083,
        0.9999517798423767
      ],
      "min": [
        -0.999631941318512,
        -0.9998787045478821,
        -0.9999992847442627
      ],
      "type": "VEC3"
    },
    {
      "bufferView": 1,
      "byteOffset": 5242560,
      "componentType": 5126,
      "count": 65532,
      "max": [
        0.9996214509010315,
        0.9353026151657104
      ],
      "min": [
        0.000244140625,
        0.00024535192642360926
      ],
      "type": "VEC2"
    },
    {
      "bufferView": 1,
      "byteOffset": 5766816,
      "componentType": 5126,
      "count": 65532,
      "max": [
        0.9996214509010315,
        0.9353026151657104
      ],
      "min": [
        0.000244140625,
        0.00024535192642360926
      ],
      "type": "VEC2"
    },
    {
      "bufferView": 0,
      "byteOffset": 6240252,
      "componentType": 5125,
      "count": 278325,
      "type": "SCALAR"
    },
    {
      "bufferView": 2,
      "byteOffset": 9436608,
      "componentType": 5126,
      "count": 65532,
      "max": [
        2.6827187538146973,
        -9.146721839904785,
        1.6921151876449585
      ],
      "min": [
        -2.0189318656921387,
        -12.915290832519531,
        1.0720034837722778
      ],
      "type": "VEC3"
    },
    {
      "bufferView": 2,
      "byteOffset": 10222992,
      "componentType": 5126,
      "count": 65532,
      "max": [
        0.9982089996337891,
        0.9963721036911011,
        0.9999501705169678
      ],
      "min": [
        -0.9777742028236389,
        -0.9870700240135193,
        -0.9999992847442627
      ],
      "type": "VEC3"
    },
    {
      "bufferView": 1,
      "byteOffset": 6291072,
      "componentType": 5126,
      "count": 65532,
      "max": [
        0.9997512102127075,
        0.7376164197921753
      ],
      "min": [
        0.000244140625,
        0.000160474912263453
      ],
      "type": "VEC2"
    },
    {
      "bufferView": 1,
      "byteOffset": 6815328,
      "componentType": 5126,
      "count": 65532,
      "max": [
        0.9997512102127075,
        0.7376164197921753
      ],
      "min": [
        0.000244140625,
        0.000160474912263453
      ],
      "type": "VEC2"
    },
    {
      "bufferView": 0,
      "byteOffset": 7353552,
      "componentType": 5125,
      "count": 295083,
      "type": "SCALAR"
    },
    {
      "bufferView": 2,
      "byteOffset": 11009376,
      "componentType": 5126,
      "count": 65533,
      "max": [
        3.5845460891723633,
        -10.025646209716797,
        1.6996721029281616
      ],
      "min": [
        -2.0215272903442383,
        -13.228171348571777,
        1.07584547996521
      ],
      "type": "VEC3"
    },
    {
      "bufferView": 2,
      "byteOffset": 11795772,
      "componentType": 5126,
      "count": 65533,
      "max": [
        0.9996486902236938,
        0.996900737285614,
        0.9999960660934448
      ],
      "min": [
        -0.9960696697235107,
        -0.9996923208236694,
        -0.9999999403953552
      ],
      "type": "VEC3"
    },
    {
      "bufferView": 1,
      "byteOffset": 7339584,
      "componentType": 5126,
      "count": 65533,
      "max": [
        0.999646008014679,
        0.9216104745864868
      ],
      "min": [
        0.000244140625,
        0.00015820993576198816
      ],
      "type": "VEC2"
    },
    {
      "bufferView": 1,
      "byteOffset": 7863848,
      "componentType": 5126,
      "count": 65533,
      "max": [
        0.999646008014679,
        0.9216104745864868
      ],
      "min": [
        0.000244140625,
        0.00015820993576198816
      ],
      "type": "VEC2"
    },
    {
      "bufferView": 0,
      "byteOffset": 8533884,
      "componentType": 5125,
      "count": 285258,
      "type": "SCALAR"
    },
    {
      "bufferView": 2,
      "byteOffset": 12582168,
      "componentType": 5126,
      "count": 65532,
      "max": [
        3.7916154861450195,
        -2.6749916076660156,
        1.7664721012115479
      ],
      "min": [
        -2.0294647216796875,
        -13.201835632324219,
        1.0809634923934937
      ],
      "type": "VEC3"
    },
    {
      "bufferView": 2,
      "byteOffset": 13368552,
      "componentType": 5126,
      "count": 65532,
      "max": [
        0.9994138479232788,
        0.9999951720237732,
        0.999948263168335
      ],
      "min": [
        -0.9999141097068787,
        -0.999930739402771,
        -0.9999997019767761
      ],
      "type": "VEC3"
    },
    {
      "bufferView": 1,
      "byteOffset": 8388112,
      "componentType": 5126,
      "count": 65532,
      "max": [
        0.9997524619102478,
        0.9606932401657104
      ],
      "min": [
        0.000244140625,
        0.0002474976936355233
      ],
      "type": "VEC2"
    },
    {
      "bufferView": 1,
      "byteOffset": 8912368,
      "componentType": 5126,
      "count": 65532,
      "max": [
        0.9997524619102478,
        0.9606932401657104
      ],
      "min": [
        0.000244140625,
        0.0002474976936355233
      ],
      "type": "VEC2"
    },
    {
      "bufferView": 0,
      "byteOffset": 9674916,
      "componentType": 5125,
      "count": 302817,
      "type": "SCALAR"
    },
    {
      "bufferView": 2,
      "byteOffset": 14154936,
      "componentType": 5126,
      "count": 65532,
      "max": [
        0.19414806365966797,
        -3.3726611137390137,
        1.7390674352645874
      ],
      "min": [
        -1.9756044149398804,
        -10.18504810333252,
        1.0716545581817627
      ],
      "type": "VEC3"
    },
    {
      "bufferView": 2,
      "byteOffset": 14941320,
      "componentType": 5126,
      "count": 65532,
      "max": [
        0.9995930790901184,
        0.996395468711853,
        0.9999482035636902
      ],
      "min": [
        -0.9999457001686096,
        -0.9985411763191223,
        -0.9999994039535522
      ],
      "type": "VEC3"
    },
    {
      "bufferView": 1,
      "byteOffset": 9436624,
      "componentType": 5126,
      "count": 65532,
      "max": [
        0.9997239112854004,
        0.9802244901657104
      ],
      "min": [
        0.000244140625,
        0.00024588836822658777
      ],
      "type": "VEC2"
    },
    {
      "bufferView": 1,
      "byteOffset": 9960880,
      "componentType": 5126,
      "count": 65532,
      "max": [
        0.9997239112854004,
        0.9802244901657104
      ],
      "min": [
        0.000244140625,
        0.00024588836822658777
      ],
      "type": "VEC2"
    },
    {
      "bufferView": 0,
      "byteOffset": 10886184,
      "componentType": 5125,
      "count": 274605,
      "type": "SCALAR"
    },
    {
      "bufferView": 2,
      "byteOffset": 15727704,
      "componentType": 5126,
      "count": 1785,
      "max": [
        -0.18385082483291626,
        -8.92805290222168,
        1.2831794023513794
      ],
      "min": [
        -1.268081545829773,
        -10.220197677612305,
        1.0757607221603394
      ],
      "type": "VEC3"
    },
    {
      "bufferView": 2,
      "byteOffset": 15749124,
      "componentType": 5126,
      "count": 1785,
      "max": [
        0.8494939804077148,
        0.8185725212097168,
        -0.09867504239082336
      ],
      "min": [
        -0.9783541560173035,
        -0.8805033564567566,
        -0.9999213218688965
      ],
      "type": "VEC3"
    },
    {
      "bufferView": 1,
      "byteOffset": 10485136,
      "componentType": 5126,
      "count": 1785,
      "max": [
        0.9969658255577087,
        0.6695091724395752
      ],
      "min": [
        0.000244140625,
        0.009082694537937641
      ],
      "type": "VEC2"
    },
    {
      "bufferView": 1,
      "byteOffset": 10499416,
      "componentType": 5126,
      "count": 1785,
      "max": [
        0.9969658255577087,
        0.6695091724395752
      ],
      "min": [
        0.000244140625,
        0.009082694537937641
      ],
      "type": "VEC2"
    },
    {
      "bufferView": 0,
      "byteOffset": 11984604,
      "componentType": 5125,
      "count": 3777,
      "type": "SCALAR"
    }
  ],
  "asset": {
    "extras": {
      "author": "hhdev (https://sketchfab.com/hhdev)",
      "license": "CC-BY-4.0 (http://creativecommons.org/licenses/by/4.0/)",
      "source": "https://sketchfab.com/3d-models/sandy-beach-on-rugen-realityscan-6994fc1f559045dab9e5455f27308ecd",
      "title": "Sandy beach on Rügen / RealityScan"
    },
    "generator": "Sketchfab-14.81.0",
    "version": "2.0"
  },
  "bufferViews": [
    {
      "buffer": 0,
      "byteLength": 11999712,
      "name": "floatBufferViews",
      "target": 34963
    },
    {
      "buffer": 0,
      "byteLength": 10513696,
      "byteOffset": 11999712,
      "byteStride": 8,
      "name": "floatBufferViews",
      "target": 34962
    },
    {
      "buffer": 0,
      "byteLength": 15770544,
      "byteOffset": 22513408,
      "byteStride": 12,
      "name": "floatBufferViews",
      "target": 34962
    }
  ],
  "buffers": [
    {
      "byteLength": 38283952,
      "uri": "scene.bin"
    }
  ],
  "images": [
    {
      "uri": "textures/tex_u1_v1_baseColor.jpeg"
    }
  ],
  "materials": [
    {
      "doubleSided": true,
      "name": "tex_u1_v1",
      "pbrMetallicRoughness": {
        "baseColorTexture": {
          "index": 0
        },
        "metallicFactor": 0.0,
        "roughnessFactor": 0.9831820716949257
      }
    }
  ],
  "meshes": [
    {
      "name": "model_tex_u1_v1_0",
      "primitives": [
        {
          "attributes": {
            "NORMAL": 1,
            "POSITION": 0,
            "TEXCOORD_0": 2,
            "TEXCOORD_1": 3
          },
          "indices": 4,
          "material": 0,
          "mode": 4
        }
      ]
    },
    {
      "name": "model_tex_u1_v1_0",
      "primitives": [
        {
          "attributes": {
            "NORMAL": 6,
            "POSITION": 5,
            "TEXCOORD_0": 7,
            "TEXCOORD_1": 8
          },
          "indices": 9,
          "material": 0,
          "mode": 4
        }
      ]
    },
    {
      "name": "model_tex_u1_v1_0",
      "primitives": [
        {
          "attributes": {
            "NORMAL": 11,
            "POSITION": 10,
            "TEXCOORD_0": 12,
            "TEXCOORD_1": 13
          },
          "indices": 14,
          "material": 0,
          "mode": 4
        }
      ]
    },
    {
      "name": "model_tex_u1_v1_0",
      "primitives": [
        {
          "attributes": {
            "NORMAL": 16,
            "POSITION": 15,
            "TEXCOORD_0": 17,
            "TEXCOORD_1": 18
          },
          "indices": 19,
          "material": 0,
          "mode": 4
        }
      ]
    },
    {
      "name": "model_tex_u1_v1_0",
      "primitives": [
        {
          "attributes": {
            "NORMAL": 21,
            "POSITION": 20,
            "TEXCOORD_0": 22,
            "TEXCOORD_1": 23
          },
          "indices": 24,
          "material": 0,
          "mode": 4
        }
      ]
    },
    {
      "name": "model_tex_u1_v1_0",
      "primitives": [
        {
          "attributes": {
            "NORMAL": 26,
            "POSITION": 25,
            "TEXCOORD_0": 27,
            "TEXCOORD_1": 28
          },
          "indices": 29,
          "material": 0,
          "mode": 4
        }
      ]
    },
    {
      "name": "model_tex_u1_v1_0",
      "primitives": [
        {
          "attributes": {
            "NORMAL": 31,
            "POSITION": 30,
            "TEXCOORD_0": 32,
            "TEXCOORD_1": 33
          },
          "indices": 34,
          "material": 0,
          "mode": 4
        }
      ]
    },
    {
      "name": "model_tex_u1_v1_0",
      "primitives": [
        {
          "attributes": {
            "NORMAL": 36,
            "POSITION": 35,
            "TEXCOORD_0": 37,
            "TEXCOORD_1": 38
          },
          "indices": 39,
          "material": 0,
          "mode": 4
        }
      ]
    },
    {
      "name": "model_tex_u1_v1_0",
      "primitives": [
        {
          "attributes": {
            "NORMAL": 41,
            "POSITION": 40,
            "TEXCOORD_0": 42,
            "TEXCOORD_1": 43
          },
          "indices": 44,
          "material": 0,
          "mode": 4
        }
      ]
    },
    {
      "name": "model_tex_u1_v1_0",
      "primitives": [
        {
          "attributes": {
            "NORMAL": 46,
            "POSITION": 45,
            "TEXCOORD_0": 47,
            "TEXCOORD_1": 48
          },
          "indices": 49,
          "material": 0,
          "mode": 4
        }
      ]
    },
    {
      "name": "model_tex_u1_v1_0",
      "primitives": [
        {
          "attributes": {
            "NORMAL": 51,
            "POSITION": 50,
            "TEXCOORD_0": 52,
            "TEXCOORD_1": 53
          },
          "indices": 54,
          "material": 0,
          "mode": 4
        }
      ]
    }
  ],
  "nodes": [
    {
      "children": [
        1
      ],
      "matrix": [
        1.0,
        0.0,
        0.0,
        0.0,
        0.0,
        2.220446049250313e-16,
        -1.0,
        0.0,
        0.0,
        1.0,
        2.220446049250313e-16,
        0.0,
        0.0,
        0.0,
        0.0,
        1.0
      ],
      "name": "Sketchfab_model"
    },
    {
      "children": [
        2
      ],
      "matrix": [
        1.0,
        0.0,
        0.0,
        0.0,
        0.0,
        -1.0,
        0.0,
        0.0,
        0.0,
        0.0,
        -1.0,
        0.0,
        0.0,
        0.0,
        0.0,
        1.0
      ],
      "name": "model.fbx"
    },
    {
      "children": [
        3
      ],
      "name": "RootNode"
    },
    {
      "children": [
        4,
        5,
        6,
        7,
        8,
        9,
        10,
        11,
        12,
        13,
        14
      ],
      "name": "model"
    },
    {
      "mesh": 0,
      "name": "model_tex_u1_v1_0"
    },
    {
      "mesh": 1,
      "name": "model_tex_u1_v1_0"
    },
    {
      "mesh": 2,
      "name": "model_tex_u1_v1_0"
    },
    {
      "mesh": 3,
      "name": "model_tex_u1_v1_0"
    },
    {
      "mesh": 4,
      "name": "model_tex_u1_v1_0"
    },
    {
      "mesh": 5,
      "name": "model_tex_u1_v1_0"
    },
    {
      "mesh": 6,
      "name": "model_tex_u1_v1_0"
    },
    {
      "mesh": 7,
      "name": "model_tex_u1_v1_0"
    },
    {
      "mesh": 8,
      "name": "model_tex_u1_v1_0"
    },
    {
      "mesh": 9,
      "name": "model_tex_u1_v1_0"
    },
    {
      "mesh": 10,
      "name": "model_tex_u1_v1_0"
    }
  ],
  "samplers": [
    {
      "magFilter": 9729,
      "minFilter": 9987,
      "wrapS": 10497,
      "wrapT": 10497
    }
  ],
  "scene": 0,
  "scenes": [
    {
      "name": "Sketchfab_Scene",
      "nodes": [
        0
      ]
    }
  ],
  "textures": [
    {
      "sampler": 0,
      "source": 0
    }
  ]
}
