{
  "accessors": [
    {
      "bufferView": 2,
      "componentType": 5126,
      "count": 4157,
      "max": [
        41.97583770751953,
        180.6021728515625,
        16.968473434448242
      ],
      "min": [
        -41.97583770751953,
        0.15615235269069672,
        -16.078201293945313
      ],
      "type": "VEC3"
    },
    {
      "bufferView": 2,
      "byteOffset": 49884,
      "componentType": 5126,
      "count": 4157,
      "max": [
        0.9997841715812683,
        0.9999985694885254,
        0.9999451637268066
      ],
      "min": [
        -0.9997721314430237,
        -0.9999994039535522,
        -0.9998248815536499
      ],
      "type": "VEC3"
    },
    {
      "bufferView": 3,
      "componentType": 5126,
      "count": 4157,
      "max": [
        0.9999999403953552,
        0.9983684420585632,
        0.999976396560669,
        1.0
      ],
      "min": [
        -0.9999984502792358,
        -0.9936413764953613,
        -0.9999637603759766,
        -1.0
      ],
      "type": "VEC4"
    },
    {
      "bufferView": 1,
      "componentType": 5126,
      "count": 4157,
      "max": [
        0.9973908066749573,
        0.9965843558311462
      ],
      "min": [
        0.0030146315693855286,
        0.006718277931213379
      ],
      "type": "VEC2"
    },
    {
      "bufferView": 1,
      "byteOffset": 33256,
      "componentType": 5126,
      "count": 4157,
      "max": [
        0.9973908066749573,
        0.9965843558311462
      ],
      "min": [
        0.0030146315693855286,
        0.006718277931213379
      ],
      "type": "VEC2"
    },
    {
      "bufferView": 0,
      "componentType": 5125,
      "count": 21282,
      "type": "SCALAR"
    }
  ],
  "asset": {
    "extras": {
      "author": "apolllo6 (https://sketchfab.com/apolllo6)",
      "license": "CC-BY-ND-4.0 (http://creativecommons.org/licenses/by-nd/4.0/)",
      "source": "https://sketchfab.com/3d-models/viking-low-poly-576d53b3123b499b8b0df07e35d76b3c",
      "title": "Viking Low Poly"
    },
    "generator": "Sketchfab-12.68.0",
    "version": "2.0"
  },
  "bufferViews": [
    {
      "buffer": 0,
      "byteLength": 85128,
      "name": "floatBufferViews",
      "target": 34963
    },
    {
      "buffer": 0,
      "byteLength": 66512,
      "byteOffset": 85128,
      "byteStride": 8,
      "name": "floatBufferViews",
      "target": 34962
    },
    {
      "buffer": 0,
      "byteLength": 99768,
      "byteOffset": 151640,
      "byteStride": 12,
      "name": "floatBufferViews",
      "target": 34962
    },
    {
      "buffer": 0,
      "byteLength": 66512,
      "byteOffset": 251408,
      "byteStride": 16,
      "name": "floatBufferViews",
      "target": 34962
    }
  ],
  "buffers": [
    {
      "byteLength": 317920,
      "uri": "scene.bin"
    }
  ],
  "images": [
    {
      "uri": "textures/Viking__0_baseColor.png"
    },
    {
      "uri": "textures/Viking__0_metallicRoughness.png"
    },
    {
      "uri": "textures/Viking__0_normal.png"
    }
  ],
  "materials": [
    {
      "doubleSided": true,
      "name": "Viking__0",
      "normalTexture": {
        "index": 2
      },
      "pbrMetallicRoughness": {
        "baseColorTexture": {
          "index": 0
        },
        "metallicRoughnessTexture": {
          "index": 1
        }
      }
    }
  ],
  "meshes": [
    {
      "name": "Viking__0",
      "primitives": [
        {
          "attributes": {
            "NORMAL": 1,
            "POSITION": 0,
            "TANGENT": 2,
            "TEXCOORD_0": 3,
            "TEXCOORD_1": 4
          },
          "indices": 5,
          "material": 0,
          "mode": 4
        }
      ]
    }
  ],
  "nodes": [
    {
      "children": [
        1
      ],
      "matrix": [
        1.0,
        0.0,
        0.0,
        0.0,
        0.0,
        2.220446049250313e-16,
        -1.0,
        0.0,
        0.0,
        1.0,
        2.220446049250313e-16,
        0.0,
        0.0,
        0.0,
        0.0,
        1.0
      ],
      "name": "Sketchfab_model"
    },
    {
      "children": [
        2
      ],
      "matrix": [
        1.0,
        0.0,
        0.0,
        0.0,
        0.0,
        0.0,
        1.0,
        0.0,
        0.0,
        -1.0,
        0.0,
        0.0,
        0.0,
        0.0,
        0.0,
        1.0
      ],
      "name": "a3c7b836c57142d3a61d72c1e06b8031.fbx"
    },
    {
      "children": [
        3
      ],
      "name": "RootNode"
    },
    {
      "children": [
        4
      ],
      "name": "Viking"
    },
    {
      "mesh": 0,
      "name": "Viking__0"
    }
  ],
  "samplers": [
    {
      "magFilter": 9729,
      "minFilter": 9987,
      "wrapS": 10497,
      "wrapT": 10497
    }
  ],
  "scene": 0,
  "scenes": [
    {
      "name": "Sketchfab_Scene",
      "nodes": [
        0
      ]
    }
  ],
  "textures": [
    {
      "sampler": 0,
      "source": 0
    },
    {
      "sampler": 0,
      "source": 1
    },
    {
      "sampler": 0,
      "source": 2
    }
  ]
}
