{
  "accessors": [
    {
      "bufferView": 2,
      "componentType": 5126,
      "count": 30,
      "max": [
        42.43251037597656,
        64.06246948242188,
        53.92805480957031
      ],
      "min": [
        -12.550811767578125,
        -8.273201942443848,
        -2.720621109008789
      ],
      "type": "VEC3"
    },
    {
      "bufferView": 2,
      "byteOffset": 360,
      "componentType": 5126,
      "count": 30,
      "max": [
        0.0,
        1.0,
        0.0
      ],
      "min": [
        0.0,
        1.0,
        0.0
      ],
      "type": "VEC3"
    },
    {
      "bufferView": 3,
      "componentType": 5126,
      "count": 30,
      "max": [
        0.9446117877960205,
        -0.0,
        0.9997135996818542,
        1.0
      ],
      "min": [
        -0.8935257196426392,
        -0.0,
        -0.8488863706588745,
        1.0
      ],
      "type": "VEC4"
    },
    {
      "bufferView": 1,
      "componentType": 5126,
      "count": 30,
      "max": [
        1.0,
        0.7957616448402405
      ],
      "min": [
        0.3404451012611389,
        0.0
      ],
      "type": "VEC2"
    },
    {
      "bufferView": 1,
      "byteOffset": 240,
      "componentType": 5126,
      "count": 30,
      "max": [
        1.0,
        0.7957616448402405
      ],
      "min": [
        0.3404451012611389,
        0.0
      ],
      "type": "VEC2"
    },
    {
      "bufferView": 0,
      "componentType": 5125,
      "count": 60,
      "type": "SCALAR"
    },
    {
      "bufferView": 2,
      "byteOffset": 720,
      "componentType": 5126,
      "count": 12,
      "max": [
        45.833038330078125,
        57.80190658569336,
        1.2526092529296875
      ],
      "min": [
        21.468017578125,
        -7.474462509155273,
        -30.587182998657227
      ],
      "type": "VEC3"
    },
    {
      "bufferView": 2,
      "byteOffset": 864,
      "componentType": 5126,
      "count": 12,
      "max": [
        0.0,
        1.0,
        0.0
      ],
      "min": [
        0.0,
        1.0,
        0.0
      ],
      "type": "VEC3"
    },
    {
      "bufferView": 3,
      "byteOffset": 480,
      "componentType": 5126,
      "count": 12,
      "max": [
        0.03964213281869888,
        0.0,
        0.9999831914901733,
        1.0
      ],
      "min": [
        -1.0,
        0.0,
        0.0002472242049407214,
        1.0
      ],
      "type": "VEC4"
    },
    {
      "bufferView": 1,
      "byteOffset": 480,
      "componentType": 5126,
      "count": 12,
      "max": [
        0.3589198589324951,
        0.843001127243042
      ],
      "min": [
        0.0,
        0.40052101016044617
      ],
      "type": "VEC2"
    },
    {
      "bufferView": 1,
      "byteOffset": 576,
      "componentType": 5126,
      "count": 12,
      "max": [
        0.3589198589324951,
        0.843001127243042
      ],
      "min": [
        0.0,
        0.40052101016044617
      ],
      "type": "VEC2"
    },
    {
      "bufferView": 0,
      "byteOffset": 240,
      "componentType": 5125,
      "count": 24,
      "type": "SCALAR"
    },
    {
      "bufferView": 2,
      "byteOffset": 1008,
      "componentType": 5126,
      "count": 24,
      "max": [
        62.541046142578125,
        58.076995849609375,
        36.04513931274414
      ],
      "min": [
        -2.86968994140625,
        -7.628379821777344,
        -32.32103729248047
      ],
      "type": "VEC3"
    },
    {
      "bufferView": 2,
      "byteOffset": 1296,
      "componentType": 5126,
      "count": 24,
      "max": [
        0.0,
        1.0,
        0.0
      ],
      "min": [
        0.0,
        1.0,
        0.0
      ],
      "type": "VEC3"
    },
    {
      "bufferView": 3,
      "byteOffset": 672,
      "componentType": 5126,
      "count": 24,
      "max": [
        0.9999078512191772,
        0.0,
        0.18709716200828552,
        1.0
      ],
      "min": [
        -0.19077980518341064,
        0.0,
        -0.9997523427009583,
        1.0
      ],
      "type": "VEC4"
    },
    {
      "bufferView": 1,
      "byteOffset": 672,
      "componentType": 5126,
      "count": 24,
      "max": [
        0.7800495624542236,
        0.843001127243042
      ],
      "min": [
        0.0,
        0.40052101016044617
      ],
      "type": "VEC2"
    },
    {
      "bufferView": 1,
      "byteOffset": 864,
      "componentType": 5126,
      "count": 24,
      "max": [
        0.7800495624542236,
        0.843001127243042
      ],
      "min": [
        0.0,
        0.40052101016044617
      ],
      "type": "VEC2"
    },
    {
      "bufferView": 0,
      "byteOffset": 336,
      "componentType": 5125,
      "count": 48,
      "type": "SCALAR"
    },
    {
      "bufferView": 2,
      "byteOffset": 1584,
      "componentType": 5126,
      "count": 30,
      "max": [
        25.767662048339844,
        77.51128387451172,
        31.313690185546875
      ],
      "min": [
        -52.120975494384766,
        -9.321334838867188,
        -49.0706787109375
      ],
      "type": "VEC3"
    },
    {
      "bufferView": 2,
      "byteOffset": 1944,
      "componentType": 5126,
      "count": 30,
      "max": [
        0.0,
        1.0,
        0.0
      ],
      "min": [
        0.0,
        1.0,
        0.0
      ],
      "type": "VEC3"
    },
    {
      "bufferView": 3,
      "byteOffset": 1056,
      "componentType": 5126,
      "count": 30,
      "max": [
        0.9920645952224731,
        0.0,
        0.9999445676803589,
        1.0
      ],
      "min": [
        -0.7012492418289185,
        0.0,
        -0.8250575661659241,
        1.0
      ],
      "type": "VEC4"
    },
    {
      "bufferView": 1,
      "byteOffset": 1056,
      "componentType": 5126,
      "count": 30,
      "max": [
        1.0,
        0.7957616448402405
      ],
      "min": [
        -1.3816620736406549e-08,
        0.0
      ],
      "type": "VEC2"
    },
    {
      "bufferView": 1,
      "byteOffset": 1296,
      "componentType": 5126,
      "count": 30,
      "max": [
        1.0,
        0.7957616448402405
      ],
      "min": [
        -1.3816620736406549e-08,
        0.0
      ],
      "type": "VEC2"
    },
    {
      "bufferView": 0,
      "byteOffset": 528,
      "componentType": 5125,
      "count": 60,
      "type": "SCALAR"
    },
    {
      "bufferView": 2,
      "byteOffset": 2304,
      "componentType": 5126,
      "count": 30,
      "max": [
        -3.60369873046875,
        64.06246948242188,
        59.07066345214844
      ],
      "min": [
        -68.44461059570313,
        -8.273201942443848,
        -7.423187255859375
      ],
      "type": "VEC3"
    },
    {
      "bufferView": 2,
      "byteOffset": 2664,
      "componentType": 5126,
      "count": 30,
      "max": [
        0.0,
        1.0,
        0.0
      ],
      "min": [
        0.0,
        1.0,
        0.0
      ],
      "type": "VEC3"
    },
    {
      "bufferView": 3,
      "byteOffset": 1536,
      "componentType": 5126,
      "count": 30,
      "max": [
        0.9871103763580322,
        -0.0,
        0.9982941746711731,
        1.0
      ],
      "min": [
        -0.9993354082107544,
        -0.0,
        -0.6728197336196899,
        1.0
      ],
      "type": "VEC4"
    },
    {
      "bufferView": 1,
      "byteOffset": 1536,
      "componentType": 5126,
      "count": 30,
      "max": [
        1.0,
        0.7957616448402405
      ],
      "min": [
        0.3404451012611389,
        0.0
      ],
      "type": "VEC2"
    },
    {
      "bufferView": 1,
      "byteOffset": 1776,
      "componentType": 5126,
      "count": 30,
      "max": [
        1.0,
        0.7957616448402405
      ],
      "min": [
        0.3404451012611389,
        0.0
      ],
      "type": "VEC2"
    },
    {
      "bufferView": 0,
      "byteOffset": 768,
      "componentType": 5125,
      "count": 60,
      "type": "SCALAR"
    },
    {
      "bufferView": 2,
      "byteOffset": 3024,
      "componentType": 5126,
      "count": 30,
      "max": [
        68.44461822509766,
        39.58747863769531,
        36.70948791503906
      ],
      "min": [
        29.324951171875,
        -5.112434387207031,
        0.9238262176513672
      ],
      "type": "VEC3"
    },
    {
      "bufferView": 2,
      "byteOffset": 3384,
      "componentType": 5126,
      "count": 30,
      "max": [
        0.0,
        1.0,
        0.0
      ],
      "min": [
        0.0,
        1.0,
        0.0
      ],
      "type": "VEC3"
    },
    {
      "bufferView": 3,
      "byteOffset": 2016,
      "componentType": 5126,
      "count": 30,
      "max": [
        0.9952402710914612,
        0.0,
        0.9720121026039124,
        1.0
      ],
      "min": [
        -0.7817186713218689,
        0.0,
        -0.999656081199646,
        1.0
      ],
      "type": "VEC4"
    },
    {
      "bufferView": 1,
      "byteOffset": 2016,
      "componentType": 5126,
      "count": 30,
      "max": [
        1.0,
        0.7957616448402405
      ],
      "min": [
        0.3404451012611389,
        0.0
      ],
      "type": "VEC2"
    },
    {
      "bufferView": 1,
      "byteOffset": 2256,
      "componentType": 5126,
      "count": 30,
      "max": [
        1.0,
        0.7957616448402405
      ],
      "min": [
        0.3404451012611389,
        0.0
      ],
      "type": "VEC2"
    },
    {
      "bufferView": 0,
      "byteOffset": 1008,
      "componentType": 5125,
      "count": 60,
      "type": "SCALAR"
    },
    {
      "bufferView": 2,
      "byteOffset": 3744,
      "componentType": 5126,
      "count": 12,
      "max": [
        6.394287109375,
        83.90983581542969,
        43.62663269042969
      ],
      "min": [
        -28.975921630859375,
        -10.850522994995117,
        -2.5945377349853516
      ],
      "type": "VEC3"
    },
    {
      "bufferView": 2,
      "byteOffset": 3888,
      "componentType": 5126,
      "count": 12,
      "max": [
        0.0,
        1.0,
        0.0
      ],
      "min": [
        0.0,
        1.0,
        0.0
      ],
      "type": "VEC3"
    },
    {
      "bufferView": 3,
      "byteOffset": 2496,
      "componentType": 5126,
      "count": 12,
      "max": [
        0.0396425686776638,
        0.0,
        0.9999831914901733,
        1.0
      ],
      "min": [
        -1.0,
        0.0,
        0.0002472275809850544,
        1.0
      ],
      "type": "VEC4"
    },
    {
      "bufferView": 1,
      "byteOffset": 2496,
      "componentType": 5126,
      "count": 12,
      "max": [
        0.3589198589324951,
        0.843001127243042
      ],
      "min": [
        0.0,
        0.40052101016044617
      ],
      "type": "VEC2"
    },
    {
      "bufferView": 1,
      "byteOffset": 2592,
      "componentType": 5126,
      "count": 12,
      "max": [
        0.3589198589324951,
        0.843001127243042
      ],
      "min": [
        0.0,
        0.40052101016044617
      ],
      "type": "VEC2"
    },
    {
      "bufferView": 0,
      "byteOffset": 1248,
      "componentType": 5125,
      "count": 24,
      "type": "SCALAR"
    }
  ],
  "asset": {
    "extras": {
      "author": "Pixel-bit (https://sketchfab.com/Pixel-bit)",
      "license": "CC-BY-4.0 (http://creativecommons.org/licenses/by/4.0/)",
      "source": "https://sketchfab.com/3d-models/dry-grass-d1484537470441b999d37077aeb9b47a",
      "title": "Dry grass"
    },
    "generator": "Sketchfab-14.81.0",
    "version": "2.0"
  },
  "bufferViews": [
    {
      "buffer": 0,
      "byteLength": 1344,
      "name": "floatBufferViews",
      "target": 34963
    },
    {
      "buffer": 0,
      "byteLength": 2688,
      "byteOffset": 1344,
      "byteStride": 8,
      "name": "floatBufferViews",
      "target": 34962
    },
    {
      "buffer": 0,
      "byteLength": 4032,
      "byteOffset": 4032,
      "byteStride": 12,
      "name": "floatBufferViews",
      "target": 34962
    },
    {
      "buffer": 0,
      "byteLength": 2688,
      "byteOffset": 8064,
      "byteStride": 16,
      "name": "floatBufferViews",
      "target": 34962
    }
  ],
  "buffers": [
    {
      "byteLength": 10752,
      "uri": "scene.bin"
    }
  ],
  "images": [
    {
      "uri": "textures/M_dry_grass_baseColor.png"
    },
    {
      "uri": "textures/M_dry_grass_metallicRoughness.png"
    },
    {
      "uri": "textures/M_dry_grass_normal.png"
    }
  ],
  "materials": [
    {
      "alphaMode": "BLEND",
      "doubleSided": true,
      "name": "M_dry_grass",
      "normalTexture": {
        "index": 2
      },
      "occlusionTexture": {
        "index": 1
      },
      "pbrMetallicRoughness": {
        "baseColorTexture": {
          "index": 0
        },
        "metallicRoughnessTexture": {
          "index": 1
        }
      }
    }
  ],
  "meshes": [
    {
      "name": "clump_dry_grass_7_M_dry_grass_0",
      "primitives": [
        {
          "attributes": {
            "NORMAL": 1,
            "POSITION": 0,
            "TANGENT": 2,
            "TEXCOORD_0": 3,
            "TEXCOORD_1": 4
          },
          "indices": 5,
          "material": 0,
          "mode": 4
        }
      ]
    },
    {
      "name": "clump_dry_grass_5_M_dry_grass_0",
      "primitives": [
        {
          "attributes": {
            "NORMAL": 7,
            "POSITION": 6,
            "TANGENT": 8,
            "TEXCOORD_0": 9,
            "TEXCOORD_1": 10
          },
          "indices": 11,
          "material": 0,
          "mode": 4
        }
      ]
    },
    {
      "name": "clump_dry_grass_6_M_dry_grass_0",
      "primitives": [
        {
          "attributes": {
            "NORMAL": 13,
            "POSITION": 12,
            "TANGENT": 14,
            "TEXCOORD_0": 15,
            "TEXCOORD_1": 16
          },
          "indices": 17,
          "material": 0,
          "mode": 4
        }
      ]
    },
    {
      "name": "clump_dry_grass_8_M_dry_grass_0",
      "primitives": [
        {
          "attributes": {
            "NORMAL": 19,
            "POSITION": 18,
            "TANGENT": 20,
            "TEXCOORD_0": 21,
            "TEXCOORD_1": 22
          },
          "indices": 23,
          "material": 0,
          "mode": 4
        }
      ]
    },
    {
      "name": "clump_dry_grass_11_M_dry_grass_0",
      "primitives": [
        {
          "attributes": {
            "NORMAL": 25,
            "POSITION": 24,
            "TANGENT": 26,
            "TEXCOORD_0": 27,
            "TEXCOORD_1": 28
          },
          "indices": 29,
          "material": 0,
          "mode": 4
        }
      ]
    },
    {
      "name": "clump_dry_grass_9_M_dry_grass_0",
      "primitives": [
        {
          "attributes": {
            "NORMAL": 31,
            "POSITION": 30,
            "TANGENT": 32,
            "TEXCOORD_0": 33,
            "TEXCOORD_1": 34
          },
          "indices": 35,
          "material": 0,
          "mode": 4
        }
      ]
    },
    {
      "name": "clump_dry_grass_10_M_dry_grass_0",
      "primitives": [
        {
          "attributes": {
            "NORMAL": 37,
            "POSITION": 36,
            "TANGENT": 38,
            "TEXCOORD_0": 39,
            "TEXCOORD_1": 40
          },
          "indices": 41,
          "material": 0,
          "mode": 4
        }
      ]
    }
  ],
  "nodes": [
    {
      "children": [
        1
      ],
      "matrix": [
        1.0,
        0.0,
        0.0,
        0.0,
        0.0,
        2.220446049250313e-16,
        -1.0,
        0.0,
        0.0,
        1.0,
        2.220446049250313e-16,
        0.0,
        0.0,
        0.0,
        0.0,
        1.0
      ],
      "name": "Sketchfab_model"
    },
    {
      "children": [
        2
      ],
      "matrix": [
        0.009999999776482582,
        0.0,
        0.0,
        0.0,
        0.0,
        0.0,
        0.009999999776482582,
        0.0,
        0.0,
        -0.009999999776482582,
        0.0,
        0.0,
        0.0,
        0.0,
        0.0,
        1.0
      ],
      "name": "aa43fa90b7ff47a59a32202ea26df00d.fbx"
    },
    {
      "children": [
        3
      ],
      "name": "RootNode"
    },
    {
      "children": [
        4,
        6,
        8,
        10,
        12,
        14,
        16
      ],
      "name": "Sketchfab_grass"
    },
    {
      "children": [
        5
      ],
      "name": "clump_dry_grass_7"
    },
    {
      "mesh": 0,
      "name": "clump_dry_grass_7_M_dry_grass_0"
    },
    {
      "children": [
        7
      ],
      "name": "clump_dry_grass_5"
    },
    {
      "mesh": 1,
      "name": "clump_dry_grass_5_M_dry_grass_0"
    },
    {
      "children": [
        9
      ],
      "name": "clump_dry_grass_6"
    },
    {
      "mesh": 2,
      "name": "clump_dry_grass_6_M_dry_grass_0"
    },
    {
      "children": [
        11
      ],
      "name": "clump_dry_grass_8"
    },
    {
      "mesh": 3,
      "name": "clump_dry_grass_8_M_dry_grass_0"
    },
    {
      "children": [
        13
      ],
      "name": "clump_dry_grass_11"
    },
    {
      "mesh": 4,
      "name": "clump_dry_grass_11_M_dry_grass_0"
    },
    {
      "children": [
        15
      ],
      "name": "clump_dry_grass_9"
    },
    {
      "mesh": 5,
      "name": "clump_dry_grass_9_M_dry_grass_0"
    },
    {
      "children": [
        17
      ],
      "name": "clump_dry_grass_10"
    },
    {
      "mesh": 6,
      "name": "clump_dry_grass_10_M_dry_grass_0"
    }
  ],
  "samplers": [
    {
      "magFilter": 9729,
      "minFilter": 9987,
      "wrapS": 10497,
      "wrapT": 10497
    }
  ],
  "scene": 0,
  "scenes": [
    {
      "name": "Sketchfab_Scene",
      "nodes": [
        0
      ]
    }
  ],
  "textures": [
    {
      "sampler": 0,
      "source": 0
    },
    {
      "sampler": 0,
      "source": 1
    },
    {
      "sampler": 0,
      "source": 2
    }
  ]
}
