{
  "accessors": [
    {
      "bufferView": 2,
      "componentType": 5126,
      "count": 1792,
      "max": [
        65.66412353515625,
        221.33518981933594,
        106.74207305908203
      ],
      "min": [
        -65.65455627441406,
        -190.8262481689453,
        -329.4711608886719
      ],
      "type": "VEC3"
    },
    {
      "bufferView": 2,
      "byteOffset": 21504,
      "componentType": 5126,
      "count": 1792,
      "max": [
        0.9992250204086304,
        0.9999815821647644,
        0.9998356699943542
      ],
      "min": [
        -0.9992256164550781,
        -0.9999976754188538,
        -0.9965949058532715
      ],
      "type": "VEC3"
    },
    {
      "bufferView": 3,
      "componentType": 5126,
      "count": 1792,
      "max": [
        0.9997499585151672,
        0.9980680346488953,
        0.9999815821647644,
        1.0
      ],
      "min": [
        -0.9942716956138611,
        -0.9992272257804871,
        -0.9997952580451965,
        -1.0
      ],
      "type": "VEC4"
    },
    {
      "bufferView": 1,
      "componentType": 5126,
      "count": 1792,
      "max": [
        0.9845420718193054,
        0.9889788627624512
      ],
      "min": [
        0.00024099434085655957,
        0.00024099434085655957
      ],
      "type": "VEC2"
    },
    {
      "bufferView": 1,
      "byteOffset": 14336,
      "componentType": 5126,
      "count": 1792,
      "max": [
        0.9845420718193054,
        0.9889788627624512
      ],
      "min": [
        0.00024099434085655957,
        0.00024099434085655957
      ],
      "type": "VEC2"
    },
    {
      "bufferView": 1,
      "byteOffset": 28672,
      "componentType": 5126,
      "count": 1792,
      "max": [
        0.9845420718193054,
        0.9889788627624512
      ],
      "min": [
        0.00024099434085655957,
        0.00024099434085655957
      ],
      "type": "VEC2"
    },
    {
      "bufferView": 0,
      "componentType": 5125,
      "count": 8478,
      "type": "SCALAR"
    },
    {
      "bufferView": 2,
      "byteOffset": 43008,
      "componentType": 5126,
      "count": 130,
      "max": [
        27.124191284179688,
        217.69168090820313,
        76.0273208618164
      ],
      "min": [
        -22.802040100097656,
        -151.39129638671875,
        -452.6663818359375
      ],
      "type": "VEC3"
    },
    {
      "bufferView": 2,
      "byteOffset": 44568,
      "componentType": 5126,
      "count": 130,
      "max": [
        0.9888811111450195,
        0.409691721200943,
        0.9480204582214355
      ],
      "min": [
        -0.9997975826263428,
        -0.9889628887176514,
        -0.8158466219902039
      ],
      "type": "VEC3"
    },
    {
      "bufferView": 1,
      "byteOffset": 43008,
      "componentType": 5126,
      "count": 130,
      "max": [
        0.5374271273612976,
        1.0
      ],
      "min": [
        0.19794736802577972,
        0.0
      ],
      "type": "VEC2"
    },
    {
      "bufferView": 0,
      "byteOffset": 33912,
      "componentType": 5125,
      "count": 300,
      "type": "SCALAR"
    },
    {
      "bufferView": 2,
      "byteOffset": 46128,
      "componentType": 5126,
      "count": 3417,
      "max": [
        54.70102310180664,
        193.99769592285156,
        89.71793365478516
      ],
      "min": [
        -54.70102310180664,
        -26.406681060791016,
        -244.020263671875
      ],
      "type": "VEC3"
    },
    {
      "bufferView": 2,
      "byteOffset": 87132,
      "componentType": 5126,
      "count": 3417,
      "max": [
        0.9999291896820068,
        0.9999920725822449,
        0.9984360337257385
      ],
      "min": [
        -0.9999291896820068,
        -0.999825656414032,
        -0.9991875290870667
      ],
      "type": "VEC3"
    },
    {
      "bufferView": 3,
      "byteOffset": 28672,
      "componentType": 5126,
      "count": 3417,
      "max": [
        0.9999995827674866,
        0.9997605085372925,
        0.999971330165863,
        1.0
      ],
      "min": [
        -0.9999903440475464,
        -0.9995524883270264,
        -0.9999920129776001,
        -1.0
      ],
      "type": "VEC4"
    },
    {
      "bufferView": 1,
      "byteOffset": 44048,
      "componentType": 5126,
      "count": 3417,
      "max": [
        0.9995632171630859,
        0.9943380355834961
      ],
      "min": [
        0.00043677064240910113,
        0.00043677064240910113
      ],
      "type": "VEC2"
    },
    {
      "bufferView": 1,
      "byteOffset": 71384,
      "componentType": 5126,
      "count": 3417,
      "max": [
        0.9995632171630859,
        0.9943380355834961
      ],
      "min": [
        0.00043677064240910113,
        0.00043677064240910113
      ],
      "type": "VEC2"
    },
    {
      "bufferView": 1,
      "byteOffset": 98720,
      "componentType": 5126,
      "count": 3417,
      "max": [
        0.9995632171630859,
        0.9943380355834961
      ],
      "min": [
        0.00043677064240910113,
        0.00043677064240910113
      ],
      "type": "VEC2"
    },
    {
      "bufferView": 0,
      "byteOffset": 35112,
      "componentType": 5125,
      "count": 14214,
      "type": "SCALAR"
    }
  ],
  "asset": {
    "extras": {
      "author": "chi3dmodel (https://sketchfab.com/chi3dmodel)",
      "license": "CC-BY-4.0 (http://creativecommons.org/licenses/by/4.0/)",
      "source": "https://sketchfab.com/3d-models/free-to-use-low-poly-horse-527c570af430404ba8458d473db8cc20",
      "title": "Free to use - Low Poly Horse"
    },
    "generator": "Sketchfab-13.74.0",
    "version": "2.0"
  },
  "bufferViews": [
    {
      "buffer": 0,
      "byteLength": 91968,
      "name": "floatBufferViews",
      "target": 34963
    },
    {
      "buffer": 0,
      "byteLength": 126056,
      "byteOffset": 91968,
      "byteStride": 8,
      "name": "floatBufferViews",
      "target": 34962
    },
    {
      "buffer": 0,
      "byteLength": 128136,
      "byteOffset": 218024,
      "byteStride": 12,
      "name": "floatBufferViews",
      "target": 34962
    },
    {
      "buffer": 0,
      "byteLength": 83344,
      "byteOffset": 346160,
      "byteStride": 16,
      "name": "floatBufferViews",
      "target": 34962
    }
  ],
  "buffers": [
    {
      "byteLength": 429504,
      "uri": "scene.bin"
    }
  ],
  "images": [
    {
      "uri": "textures/Horse_baseColor.png"
    },
    {
      "uri": "textures/Horse_metallicRoughness.png"
    },
    {
      "uri": "textures/Horse_normal.png"
    },
    {
      "uri": "textures/Hair_baseColor.png"
    },
    {
      "uri": "textures/Saddle_baseColor.png"
    },
    {
      "uri": "textures/Saddle_metallicRoughness.png"
    },
    {
      "uri": "textures/Saddle_normal.png"
    }
  ],
  "materials": [
    {
      "doubleSided": true,
      "name": "Horse",
      "normalTexture": {
        "index": 2
      },
      "pbrMetallicRoughness": {
        "baseColorTexture": {
          "index": 0
        },
        "metallicRoughnessTexture": {
          "index": 1
        }
      }
    },
    {
      "alphaCutoff": 0.11428606258609549,
      "alphaMode": "MASK",
      "doubleSided": true,
      "name": "Hair",
      "pbrMetallicRoughness": {
        "baseColorTexture": {
          "index": 3
        },
        "metallicFactor": 0.0,
        "roughnessFactor": 0.8211145618000169
      }
    },
    {
      "doubleSided": true,
      "name": "Saddle",
      "normalTexture": {
        "index": 6
      },
      "pbrMetallicRoughness": {
        "baseColorTexture": {
          "index": 4
        },
        "metallicRoughnessTexture": {
          "index": 5
        }
      }
    }
  ],
  "meshes": [
    {
      "name": "Horse_Horse_0",
      "primitives": [
        {
          "attributes": {
            "NORMAL": 1,
            "POSITION": 0,
            "TANGENT": 2,
            "TEXCOORD_0": 3,
            "TEXCOORD_1": 4,
            "TEXCOORD_2": 5
          },
          "indices": 6,
          "material": 0,
          "mode": 4
        }
      ]
    },
    {
      "name": "Horse_Hair_0",
      "primitives": [
        {
          "attributes": {
            "NORMAL": 8,
            "POSITION": 7,
            "TEXCOORD_0": 9
          },
          "indices": 10,
          "material": 1,
          "mode": 4
        }
      ]
    },
    {
      "name": "Horse_Saddle_0",
      "primitives": [
        {
          "attributes": {
            "NORMAL": 12,
            "POSITION": 11,
            "TANGENT": 13,
            "TEXCOORD_0": 14,
            "TEXCOORD_1": 15,
            "TEXCOORD_2": 16
          },
          "indices": 17,
          "material": 2,
          "mode": 4
        }
      ]
    }
  ],
  "nodes": [
    {
      "children": [
        1
      ],
      "matrix": [
        2.220446049250313e-16,
        -3.828568672208042e-16,
        1.0,
        0.0,
        1.0,
        -1.6081226229577287e-16,
        -2.2204460492503136e-16,
        0.0,
        1.6081226229577292e-16,
        1.0,
        3.828568672208042e-16,
        0.0,
        0.0,
        0.0,
        0.0,
        1.0
      ],
      "name": "Sketchfab_model"
    },
    {
      "children": [
        2
      ],
      "matrix": [
        0.009999999776482582,
        0.0,
        0.0,
        0.0,
        0.0,
        0.0,
        0.009999999776482582,
        0.0,
        0.0,
        -0.009999999776482582,
        0.0,
        0.0,
        0.0,
        0.0,
        0.0,
        1.0
      ],
      "name": "Horse.fbx"
    },
    {
      "children": [
        3
      ],
      "name": "RootNode"
    },
    {
      "children": [
        4,
        5,
        6
      ],
      "matrix": [
        1.0,
        0.0,
        0.0,
        0.0,
        0.0,
        1.0,
        0.0,
        0.0,
        0.0,
        0.0,
        1.0,
        0.0,
        1.9852334701272664e-21,
        0.0,
        150.7300262451172,
        1.0
      ],
      "name": "Horse"
    },
    {
      "mesh": 0,
      "name": "Horse_Horse_0"
    },
    {
      "mesh": 1,
      "name": "Horse_Hair_0"
    },
    {
      "mesh": 2,
      "name": "Horse_Saddle_0"
    }
  ],
  "samplers": [
    {
      "magFilter": 9729,
      "minFilter": 9987,
      "wrapS": 10497,
      "wrapT": 10497
    }
  ],
  "scene": 0,
  "scenes": [
    {
      "name": "Sketchfab_Scene",
      "nodes": [
        0
      ]
    }
  ],
  "textures": [
    {
      "sampler": 0,
      "source": 0
    },
    {
      "sampler": 0,
      "source": 1
    },
    {
      "sampler": 0,
      "source": 2
    },
    {
      "sampler": 0,
      "source": 3
    },
    {
      "sampler": 0,
      "source": 4
    },
    {
      "sampler": 0,
      "source": 5
    },
    {
      "sampler": 0,
      "source": 6
    }
  ]
}
